<svg xmlns="http://www.w3.org/2000/svg" width="1488" height="992" viewBox="0 0 1488 992" role="img" aria-labelledby="title description">
  <title id="title">Sigmoid function</title>
  <desc id="description">A deterministic plot of sigmoid(z) evaluated at 51 equally spaced values from -7 to 7, as in the lesson code.</desc>
  <style>
    text { font-family: DejaVu Sans, sans-serif; fill: #222; }
    .axis { stroke: #222; stroke-width: 3; }
    .tick { stroke: #222; stroke-width: 2; }
    .curve { fill: none; stroke: #1f77b4; stroke-width: 6; stroke-linecap: round; stroke-linejoin: round; }
  </style>
  <rect width="1488" height="992" fill="#fff"/>
  <line class="axis" x1="130" y1="40" x2="130" y2="870"/>
  <line class="axis" x1="130" y1="870" x2="1430" y2="870"/>

  <g class="tick">
    <line x1="223" y1="870" x2="223" y2="882"/><line x1="409" y1="870" x2="409" y2="882"/>
    <line x1="595" y1="870" x2="595" y2="882"/><line x1="780" y1="870" x2="780" y2="882"/>
    <line x1="966" y1="870" x2="966" y2="882"/><line x1="1151" y1="870" x2="1151" y2="882"/>
    <line x1="1337" y1="870" x2="1337" y2="882"/>
    <line x1="118" y1="870" x2="130" y2="870"/><line x1="118" y1="712" x2="130" y2="712"/>
    <line x1="118" y1="554" x2="130" y2="554"/><line x1="118" y1="395" x2="130" y2="395"/>
    <line x1="118" y1="237" x2="130" y2="237"/><line x1="118" y1="79" x2="130" y2="79"/>
  </g>
  <g font-size="32" text-anchor="middle">
    <text x="223" y="925">-6</text><text x="409" y="925">-4</text>
    <text x="595" y="925">-2</text><text x="780" y="925">0</text>
    <text x="966" y="925">2</text><text x="1151" y="925">4</text>
    <text x="1337" y="925">6</text>
  </g>
  <g font-size="32" text-anchor="end">
    <text x="105" y="881">0.0</text><text x="105" y="723">0.2</text>
    <text x="105" y="565">0.4</text><text x="105" y="406">0.6</text>
    <text x="105" y="248">0.8</text><text x="105" y="90">1.0</text>
  </g>
  <path class="curve" d="M130 869.28 L156 869.05 L182 868.74 L208 868.33 L234 867.8 L260 867.09 L286 866.15 L312 864.92 L338 863.29 L364 861.14 L390 858.32 L416 854.62 L442 849.78 L468 843.46 L494 835.27 L520 824.69 L546 811.13 L572 793.94 L598 772.4 L624 745.82 L650 713.63 L676 675.53 L702 631.64 L728 582.62 L754 529.74 L780 474.76 L806 419.79 L832 366.9 L858 317.88 L884 273.99 L910 235.89 L936 203.7 L962 177.12 L988 155.58 L1014 138.39 L1040 124.84 L1066 114.26 L1092 106.06 L1118 99.74 L1144 94.9 L1170 91.2 L1196 88.38 L1222 86.24 L1248 84.61 L1274 83.37 L1300 82.44 L1326 81.73 L1352 81.19 L1378 80.78 L1404 80.48 L1430 80.24"/>
</svg>
